<svg xmlns="http://www.w3.org/2000/svg"><symbol id="velociraptor" viewBox="0 0 256 256"><path d="M132.3 153.1c-.2 0-.4.2-.4.6h-.1c-.3 0-.4.2-.4.5s.1.6.4.6.4-.2.4-.6h.1c.4 0 .5-.2.5-.5s-.1-.6-.5-.6zm1.5-.8a2.4 2.4 0 0 0-.9.8h.3a2 2 0 0 0 1.1-.3 2.4 2.4 0 0 0 .9-.8h-.3a2 2 0 0 0-1.1.3zm3-2.5c-.3 0-.4.1-.4.5h-.1c-.3 0-.5.2-.5.6h-.1c-.3 0-.5.2-.5.6a.5.5 0 0 0 1 0h.1c.3 0 .4-.2.4-.6h.1c.3 0 .5-.2.5-.6s-.2-.5-.5-.5zm23-5.9a8.7 8.7 0 0 1-1.2 1.4 1.4 1.4 0 0 0 .8 1 2 2 0 0 0 1.1.2 2.3 2.3 0 0 0 1.4-.4 6.4 6.4 0 0 0 1-1.3 10 10 0 0 0 .8-1.4c.2-.5.4-1.2.5-1.2h-3.4c-.2 0-.5 1.1-1 1.7z"/><path d="M127.8 4.2a126 126 0 1 0 126 126 126 126 0 0 0-126-126zm94.5 74.7l-1.5.4h-3.7a30.8 30.8 0 0 0-5.2 1.2 15 15 0 0 0-3.6 1.6 8.3 8.3 0 0 0-2.4 2.1 11.9 11.9 0 0 0-1.8 2.9 40.4 40.4 0 0 0-1.5 3.9c-.4 1.5-1 3.1-1.6 5l-1.2 3.4-1.2 3.2c-.5 1-.9 2-1.5 3.1l-1.7 3.2a28 28 0 0 1-2.7 4c-.9 1.2-1.9 2.5-2.9 3.6l-3.1 3.6c-1 1.2-2 2.4-3 3.8a7.3 7.3 0 0 0-1.4 2.6 27.7 27.7 0 0 1-1 2.6 6.7 6.7 0 0 1-1.3 2.1 5.2 5.2 0 0 1-2.5 1.6 5.4 5.4 0 0 1-1.3.6l-2 .6-2 .7-1.4.4a3 3 0 0 1 .2 2 2 2 0 0 1-.9.9l-1.2.6a1.4 1.4 0 0 0-.8.9l-2.3 6.7a2.5 2.5 0 0 1-1 1.5 4.9 4.9 0 0 1-1.8.8 12.3 12.3 0 0 1-2 .2 10.3 10.3 0 0 1-1.8-.1h-.8c-.5 0-.9.2-1.2 0a.8.8 0 0 1-.4-.8c0-.2.1-.2.1-.4l.3-.2.2-.3a.6.6 0 0 0 .1-.4v-.2a21.1 21.1 0 0 0-3.4 1.6l-3.4 2.1-3.3 2.1a29 29 0 0 1-3.3 2l-.9.4-1.1.6a3.9 3.9 0 0 0-1 .8 1.3 1.3 0 0 0-.4 1v.6l1.8 1.6 1.9 1.7 2 1.6a11.3 11.3 0 0 0 2.1 1.2l1.8.7 1.9.5 1.9.7a5.6 5.6 0 0 1 1.7.9 5.8 5.8 0 0 1 1.3 1.4l1.1 1.5a17.1 17.1 0 0 1 1.1 1.4 6.4 6.4 0 0 0 1.5 1.3l1.7.6 2 .6a5.2 5.2 0 0 1 1.8 1 2.1 2.1 0 0 1 .7 1.7v.5l-5.5 1.1-1.1.4a2.1 2.1 0 0 1-1.2.3h-.5l-1.2-.6-1.7-1-1.7-1-1-.7-.2-.3-.3-.4-.3-.6-.3-.4-2.2-4.5-1.2-.4-1.8-.8-2.1-.9-2.1-1-1.8-.8-1.1-.6a18.2 18.2 0 0 1-2.7-1.5 13.8 13.8 0 0 1-2.6-2.2 10 10 0 0 1-2-2.6 8.9 8.9 0 0 1-1.1-3.1l-.5.2-.6.3-.9.7-1.7 1.1a11 11 0 0 1-2.1 1.4l-2.1 1.4-1.7 1.1-.9.5-6 3.5a22.2 22.2 0 0 0-4.5 3.4 17.3 17.3 0 0 0-3.6 4.4c-.8 1.7-.7 3.9-2.3 6.5v1.6a10.5 10.5 0 0 0 1.1 4.4 7.5 7.5 0 0 0 2.1 2.5 7.3 7.3 0 0 0 2.6 1.4l2.6 1a4.4 4.4 0 0 1 1.9 1 5.3 5.3 0 0 1 .8 2h-13.3l-.2-.4c-.1-.2-.2-.1-.3-.2l-.5-.2c-.2-.1-.4-.1-.6-.3a3.7 3.7 0 0 1-1.3-1.5 7.8 7.8 0 0 1-.4-2.2 9.3 9.3 0 0 1 .2-2.3c0-.7.2-1.4.2-2v-1.4a8.2 8.2 0 0 1 .3-1.8c.2-.8.3-1.7.6-2.7s.5-2 .7-3.1.6-2.1.8-3.1.5-1.9.7-2.7l.4-1.7a9.3 9.3 0 0 1 .7-2 7 7 0 0 1 1-1.9 15.4 15.4 0 0 0 4.4-2.5 19.9 19.9 0 0 0 3.2-3.3l2.9-3.4a16.3 16.3 0 0 1 3.4-3 4.2 4.2 0 0 1 1.5-.7l2-.8 2.3-1a10.3 10.3 0 0 0 2.1-1.1 7.5 7.5 0 0 0 1.6-1.3 2.5 2.5 0 0 0 .6-1.6v-1.3a1.7 1.7 0 0 0-.6-1.2l-.8-.3-1.2-.5-1.1-.5-.8-.4a9.4 9.4 0 0 1-2-1.2l-2.7-1.9-2.5-1.5a3.1 3.1 0 0 0-1.7-.6h-7.8c-6 0-11.8-.1-17.5.1s-11.6.2-17.6.2c-4.3 0-8.6-.1-12.7-.3a98.4 98.4 0 0 1-12.3-1.4 71.2 71.2 0 0 1-11.9-2.9 65.3 65.3 0 0 1-11.7-5l-1.4-.7-1.6-1a8 8 0 0 1-1.3-1.3 3 3 0 0 1-.5-1.5 5.9 5.9 0 0 1 2.1.4l2.4.9 2.2.9 1.4.7 4.7 1.6a41 41 0 0 0 5 1.4 30.6 30.6 0 0 0 5.1 1 27.4 27.4 0 0 0 4.8.4h26.3l2.5-.4 3.4-.5 3.6-.6 3.4-.6 2.6-.6 6.8-1.3 7.3-1.6q3.8-.9 7.2-2.1a39.7 39.7 0 0 0 6.6-2.8l3.8-1.7a25.4 25.4 0 0 1 3.8-1.6 22.3 22.3 0 0 1 3.9-1.3l4.1-1h4.6l1-.2 1.9-.3 3.3-.8 4-.9 4-.9a31.7 31.7 0 0 0 3.3-1.1c.9-.2 1.6-.7 1.9-.7h6.5c2.7 0 5.3.5 7.8.7s5.2.5 7.8.5a9.7 9.7 0 0 0 5-1.2 18.3 18.3 0 0 0 4.5-3.5 30.5 30.5 0 0 0 3.8-4.9c1.2-1.9 2.3-3.7 3.3-5.6s1.8-3.8 2.5-5.6l1.8-4.7c.4-1.2.7-2.4 1.1-3.5a28.1 28.1 0 0 1 1-3.1 12.3 12.3 0 0 1 1.2-2.6 6.1 6.1 0 0 1 1.7-1.9 7.6 7.6 0 0 1 2.6-1.6 12.7 12.7 0 0 1 3.8-.8h3c.8 1.6 1.8.9 3 1.3a36.8 36.8 0 0 1 3.5 1.5 21.6 21.6 0 0 1 3 1.8 2.9 2.9 0 0 1 1.2 2.2 2 2 0 0 1-.5 1.4 2.4 2.4 0 0 1-1.1.4z"/></symbol><symbol id="brachiosaurus" viewBox="0 0 256 256"><path d="M59.8 169.8a36.9 36.9 0 0 0-7.6.8v.2c0 .3.3.6.8.9a12 12 0 0 0 2 1.1l2.6.9 2.8.9 2.4.6 1.4.2h2.2l2.4-.4a8.5 8.5 0 0 0 2.4-.9 4.7 4.7 0 0 0 1.7-1.4 25.6 25.6 0 0 0-6.4-2.2 29 29 0 0 0-6.7-.7z"/><path d="M128.1 5.1a126 126 0 1 0 126 126 126 126 0 0 0-126-126zm82.2 69.5v.3a8.8 8.8 0 0 1-.1 1.4l-.3 2.1c-.2.7-.2 1.4-.4 2.1a10.5 10.5 0 0 0-.2 1.3 6.1 6.1 0 0 0-.9 1.8l-.6 1.9-.6 2c-.2.7-.5 1.3-.7 2s-1.1 2.1-1.7 3a21.1 21.1 0 0 0-1.6 3L183.4 123a.8.8 0 0 1-.2.5l-.3.3q0 .2-.3.3l-.4.5-1.6 2.2c-.7.9-1.3 1.9-2.1 2.9l-2.1 3.2-2 3.2c-.6 1.1-1 2.1-1.4 3a7.4 7.4 0 0 0-.5 2.3c0 .3-.2.5-.2.7s.2.4.2.7c-.2 0-.3.1-.3.4s.1.3.3.4v10.1a3.7 3.7 0 0 1-.2.9c-.2.4-.2.8-.4 1.2a6.7 6.7 0 0 0-.6 1.2c-.1.4-.4.8-.4 1.1v1.6a.5.5 0 0 1-.1.5 2.5 2.5 0 0 1-.4.7c-.1.3-.5.6-.7.9s-.5.3-.5.4v.4s.7.2.8.4.9.3.9.4v.6a2.1 2.1 0 0 0 0 .8v1.4a21.7 21.7 0 0 1-.7 3.5c-.1 1.1-.5 2.3-.7 3.4s-.5 2.4-.7 3.5a20.7 20.7 0 0 0-.3 3.5q0 3.2.3 6.3a43.4 43.4 0 0 0 1.1 6.1 32.8 32.8 0 0 0 2.1 5.7 20.6 20.6 0 0 0 3.4 5.1l-1.3.9-1.7.6-1.7.5h-1.9l-1-.3-1.2-.2-.9-.3h-.8l-.7-.3-.6-.5a.8.8 0 0 1-.3-.7c.1-1.3.1-2.6.1-4l-.3-4.2c-.2-1.4-.3-2.8-.5-4.3s-.4-2.7-.5-4a.8.8 0 0 1-.2-.6 1.6 1.6 0 0 0-.3-.6c.1-1.1.1-2.3.1-3.6a26.7 26.7 0 0 0-.1-4 25.7 25.7 0 0 0-.6-4 8.9 8.9 0 0 0-1.4-3.3 3 3 0 0 0-1.4 1.7 27.6 27.6 0 0 0-.8 2.7c-.2 1-.2 1.9-.4 2.9s-.9 1.7-.9 2.3v3.8a16.2 16.2 0 0 0 0 2.2v1.5c0 2.8-.3 5.6-.1 8.2s.2 5.4.5 8.2l.4.3.8.6a2.7 2.7 0 0 1 .8.7.7.7 0 0 1 .4.6c0 .2-.3.5-.8.8l-1.9.8a17.6 17.6 0 0 1-2 .9c-.6.1-1 .4-1.2.4h-.2l-4.7-2.6a.5.5 0 0 1-.3-.5v-.6a13.8 13.8 0 0 1 .1-2.9 28.1 28.1 0 0 0 .1-3 23.4 23.4 0 0 0-.3-3.8l-.6-3.7-.6-3.7a23.6 23.6 0 0 1-.2-3.8 32.2 32.2 0 0 1 .1-3.3l.3-2.8a23.3 23.3 0 0 0 .5-2.8c.2-.9.4-2 .7-3.2a2.3 2.3 0 0 0-.1-.7c0-.3-.1-.5-.1-.7l-1.8.2-1.9.5-1.9.7-1.9.5-1.3.2h-2l-1.1-.2H134c-1.8 0-3.5.1-5.2 0a44.3 44.3 0 0 0-5.2-.2h-2.4a3.6 3.6 0 0 0-2.4.9 43.4 43.4 0 0 1 0 5.1c0 1.7-.1 3.4-.1 5.1l-.3 5c0 1.7-.1 3.4-.1 5.2v1a7.5 7.5 0 0 0 0 1.5v2.5c0 .6.6 1.1 1.1 1.7l1.4 1.7 1.2 1.7a4.1 4.1 0 0 1 .5 1.8v.4a10.5 10.5 0 0 1-4 .4c.1.4 0 .7-.2.8h-2.7a7.8 7.8 0 0 1-2.2-.3 3.7 3.7 0 0 1-1.8-.8 2.3 2.3 0 0 1-.8-1.9c0-.4.1-.8.1-1.2l.3-1.3a6.5 6.5 0 0 0 .4-1.3 6.6 6.6 0 0 0 .1-1.4 23.4 23.4 0 0 0-.3-3.8l-.6-3.6c-.3-1.1-.6-2.6-.8-3.7a28.1 28.1 0 0 1-.8-4h-.4c-.2 0-.4.8-.5.9l-.4.7-.3.5-1.5 2.3c-.6.7-1 1.5-1.5 2.2a18.9 18.9 0 0 0-1.1 2.5 10.9 10.9 0 0 0-.4 2.6 4.1 4.1 0 0 0 .3 1.6 10.2 10.2 0 0 0 .8 1.5 6.3 6.3 0 0 0 .7 1.2 1.5 1.5 0 0 1 .3.6.9.9 0 0 1-.4.7l-1 .4-1.3.3h-4.4l-1.1-.4a3.5 3.5 0 0 1-.7-.9l-.5-1.6c-.2-.5-.3-1.1-.5-1.6a4.5 4.5 0 0 1-.3-1.6 4.2 4.2 0 0 1 .4-1.5 14 14 0 0 1 1-1.6l1-1.5a7.4 7.4 0 0 0 .8-1.5c.9-1.9 1.7-3.9 2.4-5.8s1.7-3.9 2.5-5.9l.5-.7.5-.7a3 3 0 0 0 .4-.8 1.9 1.9 0 0 0 .2-.8c0-.3-.1-.6-.3-.6h-1.3l-8.9 2.4a2.2 2.2 0 0 1-1.3.5l-1.8.4-1.5.6a1.1 1.1 0 0 0-.7 1.1 1.9 1.9 0 0 0 .2.8 2.3 2.3 0 0 0 .7.7l.8.5.7.6-.3.5-1.3-.9-1.4-.8-1.5-.6a3.9 3.9 0 0 0-1.5-.2 12.8 12.8 0 0 0-3.8.5l-3.9 1.1-4.1 1.2a14 14 0 0 1-4.1.5l-3.5-.3-4.8-1.1-5.4-1.8a37.7 37.7 0 0 1-4.9-2.2 15.4 15.4 0 0 1-3.7-2.7 4.2 4.2 0 0 1-1.4-2.9 4.9 4.9 0 0 1 1.1-3.3 6.7 6.7 0 0 1 2.7-1.6 13.6 13.6 0 0 1 3.5-.1 31.1 31.1 0 0 1 3.3.3h4a1.9 1.9 0 0 1 1.2-.3 19.5 19.5 0 0 1 2.3.2l2.6.3 1.9.3a5.9 5.9 0 0 1 1.9.5l1.8.8 1.8.8a6.9 6.9 0 0 0 2 .3 8.8 8.8 0 0 0 4-1 39.3 39.3 0 0 0 4.1-2.6c1.3-1 2.6-2 3.8-3.1l3.3-2.7 1.8-1.2 1.8-1.1 1.7-1.2a6.1 6.1 0 0 0 1.5-1.7 33 33 0 0 0 2.6-4.5 39.9 39.9 0 0 1 2.7-4.4l1.3-1.3 1.5-1 1.6-.8 1.6-.9a33.2 33.2 0 0 0 3.6-2.6l3.4-2.9 3.4-3c1.1-1 2.2-2 3.4-2.9a22.2 22.2 0 0 1 3.7-2.1l3.9-1.9 2.5-1.2 2.4-1.3a15.1 15.1 0 0 1 2.6-1.2 11.1 11.1 0 0 1 2.6-.7l22.2-3.3a8.9 8.9 0 0 0 3.5-1.1 18.5 18.5 0 0 0 3.3-2.1l3.2-2.9c1-1.1 2-2.1 2.9-3.2l2.6-3.2 2.3-2.8 7.7-8.9.3-.3c.2-.1.3-.3.5-.5l.5-.5.3-.3 2-3.2.3-.2.4-.2.3-.3c.2 0 .2-.1.3-.2l.4-.3.3-.4 1.3-1.7 1.3-2a21.4 21.4 0 0 0 1.3-1.9l1-1.7c.3-.7.6-1.4.8-2a17.2 17.2 0 0 0 .7-2.1 14.3 14.3 0 0 1 .8-2.2c.2-.7 1-1.5 1-2.2v-6a5.3 5.3 0 0 0-1.1-3.1 12.8 12.8 0 0 0-2.6-2.6 11.9 11.9 0 0 0-3.3-1.8 10.9 10.9 0 0 0-3.2-.7 27.1 27.1 0 0 0-5.8.7 12.4 12.4 0 0 0-5.1 2.6l-1.4 1.4c-.5.6-1 1.3-1.6 1.9s-1.1 1.3-1.7 2a10.7 10.7 0 0 1-1.9 1.8 10.2 10.2 0 0 1-1.8 1.3 4.1 4.1 0 0 1-1.7.5 1.7 1.7 0 0 1-1.2-.5 1.4 1.4 0 0 1-.5-1.1v-.4a4.3 4.3 0 0 0 .1-.5c.1-.2.1-.5.2-.7s.1-.6.1-.8a1.1 1.1 0 0 0 .1-.5 7 7 0 0 0-.2-1.6l-.6-1.4a6.7 6.7 0 0 1-.6-1.2 2.4 2.4 0 0 1-.3-1.2 1.2 1.2 0 0 0 .9-.3 1.5 1.5 0 0 0 .4-.6l.4-.7a1.6 1.6 0 0 1 .8-.6h2.8a1.3 1.3 0 0 0 1-.3 2.3 2.3 0 0 1 .7-.7h.4l.2.3c.1.2.1.4.2.4s.1-.3.4-.3l.6-.4 1.1-.6 1.4-.8 1.3-.8 1.1-.7.5-.4 2.1-1.2a6.4 6.4 0 0 1 1.8-.6 10.8 10.8 0 0 1 1.9-.5h6.4l1.4.5 1.5.3 1.6.3 1.5.5a14.8 14.8 0 0 1 4.5 3 18 18 0 0 1 3.2 4.2 19.6 19.6 0 0 1 1.7 5 24.7 24.7 0 0 1 .5 5.4v2.3z"/></symbol><symbol id="micropachycephalosaurus" viewBox="0 0 256 256"><path d="M128.2 1.7a126 126 0 1 0 126 126 126 126 0 0 0-126-126zm108.9 114.9h-7.3c-3 0-6-.2-9-.4l-9.1-1-9-1a91 91 0 0 0-9.1-.4 125.4 125.4 0 0 0-16.1 1 70.2 70.2 0 0 0-15.7 3.6l-30.2 11c-.5.1-.9.7-1.2 1.5a12 12 0 0 0-.8 2.7c-.3 1-.5 1.9-.7 2.8a8.1 8.1 0 0 1-.6 2 3 3 0 0 0 1.4 1.3l2.4 1.2 2.9 1.1a14.3 14.3 0 0 1 2.7 1.5 9.1 9.1 0 0 1 2.1 1.8 4.1 4.1 0 0 1 .8 2.4 1.7 1.7 0 0 1-.5 1.2 3.8 3.8 0 0 1-1.2.9l-1.6.7-1.6.8a4.3 4.3 0 0 0-1.2 1.1 2.3 2.3 0 0 0-.5 1.5 3.9 3.9 0 0 0 .8 2.5 7 7 0 0 0 1.9 1.5l2.4 1.3a7.2 7.2 0 0 1 2.1 1.8 14.5 14.5 0 0 1 2 3.4 26 26 0 0 1 1.3 3.6 25.3 25.3 0 0 1 .7 3.8c.2 1.3.1 2.6.3 3.9l1.3 1.3v7.1h.8l1.1.2.9.2.6.3a5.4 5.4 0 0 0 .1.8c0 .2-.1.5-.1 1a5.6 5.6 0 0 1-.4 1.2l-.6.9a1 1 0 0 1-.9.3h-5.1c-.2 0-.5-.5-1-.8l-1.5-.8a10.9 10.9 0 0 0-1.5-.8c-.6-.3-.9-.9-1.2-.9h-6.1a5 5 0 0 1 .6-2.9 4.9 4.9 0 0 1 1.7-1.5 6.5 6.5 0 0 1 2.1-.7l2.1-.3a5.9 5.9 0 0 0 1.6-.6 1.6 1.6 0 0 0 .6-1.4v-.6l-.9-1.8a26.7 26.7 0 0 0-1.2-2.4l-1.5-2.4a10 10 0 0 0-1.6-1.8l-1.3-.8-1.8-.9-1.7-1.1a1.7 1.7 0 0 1-1-1.1c-.3-.8-.6-1.8-.9-2.9a30.1 30.1 0 0 0-1.1-3.2 7.4 7.4 0 0 0-1.7-2.5 4 4 0 0 0-2.9-1.1 23.3 23.3 0 0 0-5.9.8 28.3 28.3 0 0 0-5.7 2.3 27.6 27.6 0 0 0-5 3.4 18.2 18.2 0 0 0-3.8 4.5.5.5 0 0 1-.4.2h-.2a.3.3 0 0 1-.1-.2l-.2-.3c0-.2-.1-.4-.1-.6a2.1 2.1 0 0 1-.2-.6c0-.2-.1-.3-.1-.4h-.3a1.5 1.5 0 0 0-1.1.4l-.8 1.2-.9 1.3a2.7 2.7 0 0 1-.8 1 5.2 5.2 0 0 1-.7-1.6v-1.7a8.6 8.6 0 0 1 .4-2.8 22.9 22.9 0 0 1 .8-2.8 26 26 0 0 0 1-2.5 26.6 26.6 0 0 0 .3-2.8h-4.8c0-1.6.2-1.8.7-2.3a4.9 4.9 0 0 1 1.6-1.6 6.7 6.7 0 0 1 2.1-.9l2.1-.3 3 .2 2.9.5 2.8.4a14.2 14.2 0 0 0 2.9.2h2.3a2.4 2.4 0 0 0-1.7-1.4 10.1 10.1 0 0 0-2.5-.4l-2.6-.2c-.9-.1-1.6.1-2.2-.2l-3.9-2.2h-.3a10.7 10.7 0 0 0-3.1 0 15.8 15.8 0 0 1-3.1.1 7.3 7.3 0 0 1-3-.7l-2.6-1.3-2.6-1.4a5 5 0 0 0-2.9-.6v6h1.6l1-.4.9-.5a3.5 3.5 0 0 1 .9-.6l.6-.2v2.8l2-.7c0 .1.2.3.2.5a4.3 4.3 0 0 0 .1.5 5.2 5.2 0 0 1-1.3 3.8 22.6 22.6 0 0 1-3.2 2.9 20.9 20.9 0 0 0-4.6-1.2l-4.7-.7v-7.7c0 .1-1.1.2-1.8.5l-2 1-1.9 1.2c-.4.4-.9.8-.9 1.1v6.9a9.3 9.3 0 0 0 2.9-.3l1.9-.6 1.2-.6a2.1 2.1 0 0 1 1.2-.3h.3a2.4 2.4 0 0 1 .3.7c.2.4.3.8.5 1.3l.4 1.2a4.8 4.8 0 0 1-.3 2.9 8.1 8.1 0 0 1-1 1.8A6.5 6.5 0 0 1 77 165a3 3 0 0 1-1.8.6h-1l-3-.4-3.6-.7a10.2 10.2 0 0 1-3.2-1.3 2.5 2.5 0 0 1-1.4-2v-11.8l.9-.9 1.8-1.5 2.4-2.2a27.3 27.3 0 0 0 2.3-2.5 31 31 0 0 0 1.8-2.6 5.6 5.6 0 0 0 .8-2.6 3.9 3.9 0 0 0-1.2-2.8 15.5 15.5 0 0 0-2.8-2l-3.2-1.4-2.5-.9-1.3-9q-.3-1.2-.6-2.7a12.8 12.8 0 0 0-1.1-2.7 9.1 9.1 0 0 0-1.8-2.1 3.9 3.9 0 0 0-2.6-.9 12.5 12.5 0 0 0-3.6.5 13 13 0 0 0-3.2 1.5l-1.6 1-2.5 1.5-3 1.7-2.9 1.7-2.5 1.7c-.8.4-1.3 1.1-1.7 1.1h-1l-1.7-.2-2-.4a4.7 4.7 0 0 1-1.4-.8c-.5-.3-.3-.8-.3-1.3v-1.9c0-.6-.3-.9 0-.9h1.6c0-.1-.1-.2 0-.4a2.8 2.8 0 0 1 .1-.9c.1-.3.1-.5.2-.8a.8.8 0 0 0 0-.5 2 2 0 0 0-.8-.8l-.9-.5c-.2-.2-.5-.4-.6-.7a1.7 1.7 0 0 1-.3-1.2 5 5 0 0 1 .2-1.2 4.1 4.1 0 0 1 .7-1.1c.3-.4.2-.7.6-.9l.8-.3v.7a4.7 4.7 0 0 0 .6 1.5c.1.5.6.7 1.2.7a1.4 1.4 0 0 0 1-.4 5.8 5.8 0 0 0 1-1.2 7.6 7.6 0 0 0 .6-1.6c.2-.4.3.3.3-1.4H22.7c-.3 0-.5-.2-.9-.4l-1-.7a3.6 3.6 0 0 1-.9-.8 1.3 1.3 0 0 1-.4-1 4.7 4.7 0 0 1 1-3.2 7.8 7.8 0 0 1 2.6-1.7 11.9 11.9 0 0 1 3.2-1l2.8-.8 2.2-1 3.3-1.5 3.3-1.6a11 11 0 0 1 2.2-1h13.5a7.9 7.9 0 0 1 3.8.9 12.6 12.6 0 0 1 3.1 2.5 26 26 0 0 1 2.5 3.3l2.3 3.3a18.6 18.6 0 0 0 2.2 2.5 3.6 3.6 0 0 0 2.5 1 .8.8 0 0 0 .8-.4.9.9 0 0 1 .8-.4l1.5.3 1.5.7 1.5.7a3 3 0 0 0 1.6.3h4.1l4-.5 4.1-.5 4.1-.2a55.8 55.8 0 0 1 7.2.4 40.8 40.8 0 0 1 7.2 1.6c1.6.5 3.3 1.2 5 1.9l5 2.2a52.5 52.5 0 0 0 5.2 1.7 20 20 0 0 0 5.4.7h2.6l12.7-2.7c4.3-.8 8.5-1.6 12.7-2.2s8.5-1.2 12.8-1.6 8.6-.6 13-.6h3.3l5.5.2a34.4 34.4 0 0 1 5 .9l36.1 7.2h11.6c-.8 0-1.9 1-3.1 1.3a14 14 0 0 1-4.1 0z"/></symbol></svg>